<svg width="20" height="20" viewBox="0 0 20 20" fill="none" xmlns="http://www.w3.org/2000/svg">
<path d="M6.84118 5.50416V3.4643C6.84118 3.01808 7.19178 2.66748 7.638 2.66748C8.08422 2.66748 8.43482 3.01808 8.43482 3.4643V5.50416C8.43482 5.95038 8.08422 6.30098 7.638 6.30098C7.19178 6.30098 6.84118 5.95038 6.84118 5.50416ZM12.7376 6.30098C13.1839 6.30098 13.5345 5.95038 13.5345 5.50416V3.4643C13.5345 3.01808 13.1839 2.66748 12.7376 2.66748C12.2914 2.66748 11.9408 3.01808 11.9408 3.4643V5.50416C11.9408 5.95038 12.2914 6.30098 12.7376 6.30098ZM7.35115 9.04203H13.0086C13.3592 9.04203 13.646 8.75518 13.646 8.40458C13.646 8.05398 13.3592 7.76712 13.0086 7.76712H7.35115C7.00055 7.76712 6.71369 8.05398 6.71369 8.40458C6.71369 8.75518 7.00055 9.04203 7.35115 9.04203ZM16.2437 3.78302H14.9209C14.5703 3.78302 14.2835 4.06988 14.2835 4.42048C14.2835 4.77108 14.5703 5.05794 14.9209 5.05794H15.6062V15.8947H4.76945V5.05794H5.45471C5.80531 5.05794 6.09217 4.77108 6.09217 4.42048C6.09217 4.06988 5.80531 3.78302 5.45471 3.78302H4.13199C3.78139 3.78302 3.49454 4.13361 3.49454 4.48421V16.5321C3.49454 16.8827 3.78139 17.1696 4.13199 17.1696H16.2437C16.5943 17.1696 16.8811 16.8827 16.8811 16.5321V4.48421C16.8811 4.13361 16.5943 3.78302 16.2437 3.78302ZM9.66192 5.05794H10.7137C11.0643 5.05794 11.3512 4.77108 11.3512 4.42048C11.3512 4.06988 11.0643 3.78302 10.7137 3.78302H9.66192C9.31132 3.78302 9.02447 4.06988 9.02447 4.42048C9.02447 4.77108 9.31132 5.05794 9.66192 5.05794ZM7.35115 11.9106H13.0086C13.3592 11.9106 13.646 11.6237 13.646 11.2731C13.646 10.9225 13.3592 10.6357 13.0086 10.6357H7.35115C7.00055 10.6357 6.71369 10.9225 6.71369 11.2731C6.71369 11.6237 7.00055 11.9106 7.35115 11.9106Z" fill="#585858"/>
</svg>
