<svg width="14" height="16" viewBox="0 0 14 16" fill="none" xmlns="http://www.w3.org/2000/svg">
<path d="M3.51608 3.50416V1.4643C3.51608 1.01808 3.86668 0.667477 4.3129 0.667477C4.75912 0.667477 5.10972 1.01808 5.10972 1.4643V3.50416C5.10972 3.95038 4.75912 4.30098 4.3129 4.30098C3.86668 4.30098 3.51608 3.95038 3.51608 3.50416ZM9.41254 4.30098C9.85876 4.30098 10.2094 3.95038 10.2094 3.50416V1.4643C10.2094 1.01808 9.85876 0.667477 9.41254 0.667477C8.96632 0.667477 8.61572 1.01808 8.61572 1.4643V3.50416C8.61572 3.95038 8.96632 4.30098 9.41254 4.30098ZM4.02604 7.04203H9.68346C10.0341 7.04203 10.3209 6.75518 10.3209 6.40458C10.3209 6.05398 10.0341 5.76712 9.68346 5.76712H4.02604C3.67544 5.76712 3.38859 6.05398 3.38859 6.40458C3.38859 6.75518 3.67544 7.04203 4.02604 7.04203ZM12.9185 1.78302H11.5958C11.2452 1.78302 10.9584 2.06988 10.9584 2.42048C10.9584 2.77108 11.2452 3.05794 11.5958 3.05794H12.2811V13.8947H1.44435V3.05794H2.12961C2.48021 3.05794 2.76706 2.77108 2.76706 2.42048C2.76706 2.06988 2.48021 1.78302 2.12961 1.78302H0.806889C0.456289 1.78302 0.169434 2.13361 0.169434 2.48421V14.5321C0.169434 14.8827 0.456289 15.1696 0.806889 15.1696H12.9185C13.2691 15.1696 13.556 14.8827 13.556 14.5321V2.48421C13.556 2.13361 13.2691 1.78302 12.9185 1.78302ZM6.33682 3.05794H7.38862C7.73922 3.05794 8.02607 2.77108 8.02607 2.42048C8.02607 2.06988 7.73922 1.78302 7.38862 1.78302H6.33682C5.98622 1.78302 5.69936 2.06988 5.69936 2.42048C5.69936 2.77108 5.98622 3.05794 6.33682 3.05794ZM4.02604 9.91059H9.68346C10.0341 9.91059 10.3209 9.62373 10.3209 9.27313C10.3209 8.92253 10.0341 8.63567 9.68346 8.63567H4.02604C3.67544 8.63567 3.38859 8.92253 3.38859 9.27313C3.38859 9.62373 3.67544 9.91059 4.02604 9.91059Z" fill="#585858"/>
</svg>
