<svg width="53" height="32" viewBox="0 0 53 32" fill="none" xmlns="http://www.w3.org/2000/svg">
<path d="M2.90922 32L49.4547 32C51.0613 32 52.3638 30.6976 52.3638 29.0909L52.3638 2.90909C52.3638 1.30244 51.0613 0 49.4547 0L2.90922 0C1.30257 0 0.0001297 1.30244 0.0001297 2.90909L0.0001297 29.0909C0.0001297 30.6976 1.30257 32 2.90922 32Z" fill="#4481C3"/>
<path d="M50.9091 10.1818H1.45459V13.0909H50.9091V10.1818Z" fill="#7FD0DD"/>
<path d="M7.27286 4.36364H4.36377V7.27273H7.27286V4.36364Z" fill="#7FD0DD"/>
<path d="M13.0907 4.36364H10.1816V7.27273H13.0907V4.36364Z" fill="#7FD0DD"/>
<path d="M13.091 27.6364H4.36377V21.8182H7.27286V24.7273H13.091V27.6364Z" fill="#7FD0DD"/>
<path d="M18.9091 24.7273H16V27.6364H18.9091V24.7273Z" fill="#7FD0DD"/>
</svg>
