<svg width="64" height="64" viewBox="0 0 64 64" fill="none" xmlns="http://www.w3.org/2000/svg">
<g clip-path="url(#clip0)">
<path d="M63.8593 62.1733L53.4037 42.0469L55.3022 40.4585C55.5863 40.2207 55.7504 39.8696 55.7504 39.4995V9.3125C55.7504 4.17773 51.5727 0 46.4379 0H17.5629C12.4281 0 8.2504 4.17773 8.2504 9.3125V13.625C8.2504 14.3149 8.81046 14.875 9.5004 14.875C10.1908 14.875 10.7504 14.3149 10.7504 13.625V9.3125C10.7504 5.55615 13.8066 2.5 17.5629 2.5H46.4379C50.1942 2.5 53.2504 5.55615 53.2504 9.3125V38.9155L43.4398 47.1245H39.8754V45.312C39.8754 44.6221 39.3158 44.062 38.6254 44.062C37.935 44.062 37.3754 44.6221 37.3754 45.312V47.1245H33.5785V45.312C33.5785 44.6221 33.019 44.062 32.329 44.062C31.6386 44.062 31.079 44.6221 31.079 45.312V47.1245H27.2821V45.312C27.2821 44.6221 26.7226 44.062 26.0321 44.062C25.3422 44.062 24.7821 44.6221 24.7821 45.312V47.1245H20.5609L10.7504 38.9155V25.375C10.7504 24.6846 10.1908 24.125 9.5004 24.125C8.81046 24.125 8.2504 24.6846 8.2504 25.375V39.5C8.2504 39.8701 8.41446 40.2212 8.69864 40.4585L10.5971 42.0469L0.141514 62.1733C-0.176845 62.7856 0.0619242 63.5405 0.674229 63.8589C0.858799 63.9546 1.05558 63.9995 1.24942 63.9995C1.70108 63.9995 2.13761 63.7544 2.35978 63.3257L12.5605 43.6899L14.288 45.1353L7.70841 62.3022C7.46134 62.9468 7.7836 63.6694 8.42813 63.917C8.57559 63.9731 8.72647 64 8.8754 64C9.37784 64 9.85196 63.6943 10.0429 63.1968L11.3642 59.7495H43.1254C43.8153 59.7495 44.3754 59.1899 44.3754 58.4995C44.3754 57.8091 43.8153 57.2495 43.1254 57.2495H12.3222L13.2851 54.7378C13.3383 54.7446 13.3915 54.7495 13.4467 54.7495H50.5106C50.58 54.7495 50.6474 54.7427 50.7133 54.7319L53.9579 63.1968C54.1488 63.6943 54.6225 64 55.1254 64C55.2743 64 55.4252 63.9731 55.5727 63.917C56.2172 63.6694 56.5395 62.9468 56.2924 62.3022L49.7128 45.1353L51.4403 43.6899L61.641 63.3257C61.8637 63.7544 62.2997 63.9995 62.7514 63.9995C62.9452 63.9995 63.1425 63.9546 63.3266 63.8589C63.9389 63.5405 64.1776 62.7861 63.8593 62.1733ZM49.7621 52.2495H14.2387L16.3153 46.8315L19.3051 49.3335C19.5297 49.5215 19.8139 49.6245 20.1073 49.6245H43.894C44.1874 49.6245 44.4711 49.5215 44.6957 49.3335L47.6855 46.8315L49.7621 52.2495Z" fill="#003CB0"/>
<path d="M48.25 57.2495C47.9209 57.2495 47.5986 57.3833 47.3662 57.6157C47.1338 57.8486 47 58.1709 47 58.4995C47 58.8286 47.1333 59.1509 47.3662 59.3833C47.5986 59.6157 47.9209 59.7495 48.25 59.7495C48.5786 59.7495 48.9009 59.6157 49.1333 59.3833C49.3662 59.1509 49.5 58.8286 49.5 58.4995C49.5 58.1709 49.3662 57.8486 49.1333 57.6157C48.9009 57.3833 48.5786 57.2495 48.25 57.2495Z" fill="#003CB0"/>
<path d="M49.75 12.75C49.75 10.6821 48.0679 9 46 9H18C15.9326 9 14.25 10.6821 14.25 12.75V23.75C14.25 25.8179 15.9326 27.5 18 27.5H46C48.0679 27.5 49.75 25.8179 49.75 23.75V12.75ZM16.75 23.75V12.75C16.75 12.0605 17.311 11.5 18 11.5H30.75V25H18C17.311 25 16.75 24.439 16.75 23.75ZM47.25 23.75C47.25 24.439 46.689 25 46 25H33.25V11.5H46C46.689 11.5 47.25 12.0605 47.25 12.75V23.75Z" fill="#003CB0"/>
<path d="M18.4585 39.25C20.8018 39.25 22.7085 37.3433 22.7085 35C22.7085 32.6562 20.8018 30.75 18.4585 30.75C16.1152 30.75 14.2085 32.6562 14.2085 35C14.2085 37.3433 16.1152 39.25 18.4585 39.25ZM18.4585 33.25C19.4233 33.25 20.2085 34.0347 20.2085 35C20.2085 35.9648 19.4233 36.75 18.4585 36.75C17.4937 36.75 16.7085 35.9648 16.7085 35C16.7085 34.0347 17.4937 33.25 18.4585 33.25Z" fill="#003CB0"/>
<path d="M45.5 30.75C43.1562 30.75 41.25 32.6562 41.25 35C41.25 37.3433 43.1562 39.25 45.5 39.25C47.8433 39.25 49.75 37.3433 49.75 35C49.75 32.6562 47.8433 30.75 45.5 30.75ZM45.5 36.75C44.5347 36.75 43.75 35.9648 43.75 35C43.75 34.0347 44.5347 33.25 45.5 33.25C46.4648 33.25 47.25 34.0347 47.25 35C47.25 35.9648 46.4648 36.75 45.5 36.75Z" fill="#003CB0"/>
<path d="M38.625 30.7656H26.0317C25.3418 30.7656 24.7817 31.3252 24.7817 32.0156C24.7817 32.7061 25.3418 33.2656 26.0317 33.2656H38.625C39.3154 33.2656 39.875 32.7061 39.875 32.0156C39.875 31.3252 39.3154 30.7656 38.625 30.7656Z" fill="#003CB0"/>
<path d="M38.625 36.75H26.0317C25.3418 36.75 24.7817 37.3096 24.7817 38C24.7817 38.6899 25.3418 39.25 26.0317 39.25H38.625C39.3154 39.25 39.875 38.6899 39.875 38C39.875 37.3096 39.3154 36.75 38.625 36.75Z" fill="#003CB0"/>
<path d="M9.5 20.541C9.8291 20.541 10.1514 20.4087 10.3838 20.1748C10.6162 19.9424 10.75 19.6211 10.75 19.291C10.75 18.9624 10.6162 18.6401 10.3838 18.4077C10.1514 18.1748 9.8291 18.041 9.5 18.041C9.17139 18.041 8.84912 18.1748 8.61621 18.4077C8.38379 18.6401 8.25 18.9624 8.25 19.291C8.25 19.6211 8.38379 19.9424 8.61621 20.1748C8.84912 20.4087 9.17139 20.541 9.5 20.541Z" fill="#003CB0"/>
</g>
<defs>
<clipPath id="clip0">
<rect width="64" height="64" fill="white"/>
</clipPath>
</defs>
</svg>
