<svg width="111" height="110" viewBox="0 0 111 110" fill="none" xmlns="http://www.w3.org/2000/svg">
<g clip-path="url(#clip0)">
<path d="M109.811 106.311L91.9329 71.8962L95.179 69.1802C95.6649 68.7736 95.9455 68.1733 95.9455 67.5404V15.9235C95.9455 7.14354 88.8019 7.62939e-06 80.022 7.62939e-06H30.6485C21.8685 7.62939e-06 14.725 7.14354 14.725 15.9235V23.2975C14.725 24.4772 15.6826 25.4348 16.8624 25.4348C18.0429 25.4348 18.9997 24.4772 18.9997 23.2975V15.9235C18.9997 9.5005 24.2255 4.27477 30.6485 4.27477H80.022C86.445 4.27477 91.6707 9.5005 91.6707 15.9235V66.5419L74.8956 80.5784H68.8007V77.4792C68.8007 76.2995 67.8439 75.3419 66.6633 75.3419C65.4828 75.3419 64.526 76.2995 64.526 77.4792V80.5784H58.0337V77.4792C58.0337 76.2995 57.0769 75.3419 55.8971 75.3419C54.7165 75.3419 53.7597 76.2995 53.7597 77.4792V80.5784H47.2674V77.4792C47.2674 76.2995 46.3106 75.3419 45.1301 75.3419C43.9503 75.3419 42.9927 76.2995 42.9927 77.4792V80.5784H35.7748L18.9997 66.5419V43.3888C18.9997 42.2083 18.0429 41.2515 16.8624 41.2515C15.6826 41.2515 14.725 42.2083 14.725 43.3888V67.5412C14.725 68.1741 15.0055 68.7744 15.4914 69.1802L18.7376 71.8962L0.859559 106.311C0.315195 107.357 0.723468 108.648 1.77045 109.193C2.08605 109.356 2.42252 109.433 2.75398 109.433C3.52628 109.433 4.27269 109.014 4.65258 108.281L22.0948 74.7057L25.0487 77.177L13.7982 106.531C13.3758 107.633 13.9268 108.869 15.0289 109.292C15.281 109.388 15.539 109.434 15.7937 109.434C16.6528 109.434 17.4635 108.911 17.79 108.06L20.0492 102.166H74.3579C75.5376 102.166 76.4953 101.209 76.4953 100.029C76.4953 98.848 75.5376 97.8912 74.3579 97.8912H21.6873L23.3338 93.5964C23.4248 93.6081 23.5158 93.6165 23.6101 93.6165H86.986C87.1045 93.6165 87.2198 93.6048 87.3325 93.5864L92.8805 108.06C93.2069 108.911 94.0168 109.434 94.8768 109.434C95.1314 109.434 95.3894 109.388 95.6416 109.292C96.7436 108.869 97.2947 107.633 96.8722 106.531L85.6217 77.177L88.5757 74.7057L106.018 108.281C106.399 109.014 107.144 109.433 107.916 109.433C108.248 109.433 108.585 109.356 108.9 109.193C109.947 108.648 110.355 107.358 109.811 106.311ZM85.7061 89.3417H24.9644L28.5153 80.0775L33.6274 84.3556C34.0115 84.677 34.4974 84.8532 34.9992 84.8532H75.6721C76.1739 84.8532 76.6589 84.677 77.043 84.3556L82.1552 80.0775L85.7061 89.3417Z" fill="white"/>
<path d="M83.1208 97.8912C82.5581 97.8912 82.007 98.12 81.6096 98.5174C81.2122 98.9157 80.9834 99.4667 80.9834 100.029C80.9834 100.591 81.2114 101.142 81.6096 101.54C82.007 101.937 82.5581 102.166 83.1208 102.166C83.6827 102.166 84.2338 101.937 84.6312 101.54C85.0294 101.142 85.2582 100.591 85.2582 100.029C85.2582 99.4667 85.0294 98.9157 84.6312 98.5174C84.2338 98.12 83.6827 97.8912 83.1208 97.8912Z" fill="white"/>
<path d="M85.6857 21.8013C85.6857 18.2654 82.8094 15.3892 79.2735 15.3892H31.3962C27.8612 15.3892 24.9841 18.2654 24.9841 21.8013V40.6103C24.9841 44.1461 27.8612 47.0224 31.3962 47.0224H79.2735C82.8094 47.0224 85.6857 44.1461 85.6857 40.6103V21.8013ZM29.2588 40.6103V21.8013C29.2588 20.6224 30.2181 19.6639 31.3962 19.6639H53.1975V42.7476H31.3962C30.2181 42.7476 29.2588 41.7883 29.2588 40.6103ZM81.4109 40.6103C81.4109 41.7883 80.4516 42.7476 79.2735 42.7476H57.4722V19.6639H79.2735C80.4516 19.6639 81.4109 20.6224 81.4109 21.8013V40.6103Z" fill="white"/>
<path d="M32.1802 67.1138C36.1869 67.1138 39.4473 63.8534 39.4473 59.8467C39.4473 55.8391 36.1869 52.5796 32.1802 52.5796C28.1734 52.5796 24.9131 55.8391 24.9131 59.8467C24.9131 63.8534 28.1734 67.1138 32.1802 67.1138ZM32.1802 56.8544C33.83 56.8544 35.1725 58.1961 35.1725 59.8467C35.1725 61.4965 33.83 62.839 32.1802 62.839C30.5304 62.839 29.1878 61.4965 29.1878 59.8467C29.1878 58.1961 30.5304 56.8544 32.1802 56.8544Z" fill="white"/>
<path d="M78.4186 52.5796C74.411 52.5796 71.1515 55.8391 71.1515 59.8467C71.1515 63.8534 74.411 67.1138 78.4186 67.1138C82.4253 67.1138 85.6857 63.8534 85.6857 59.8467C85.6857 55.8391 82.4253 52.5796 78.4186 52.5796ZM78.4186 62.839C76.768 62.839 75.4263 61.4965 75.4263 59.8467C75.4263 58.1961 76.768 56.8544 78.4186 56.8544C80.0684 56.8544 81.4109 58.1961 81.4109 59.8467C81.4109 61.4965 80.0684 62.839 78.4186 62.839Z" fill="white"/>
<path d="M66.663 52.6063H45.1297C43.95 52.6063 42.9923 53.5631 42.9923 54.7437C42.9923 55.9243 43.95 56.8811 45.1297 56.8811H66.663C67.8436 56.8811 68.8004 55.9243 68.8004 54.7437C68.8004 53.5631 67.8436 52.6063 66.663 52.6063Z" fill="white"/>
<path d="M66.663 62.839H45.1297C43.95 62.839 42.9923 63.7958 42.9923 64.9764C42.9923 66.1561 43.95 67.1138 45.1297 67.1138H66.663C67.8436 67.1138 68.8004 66.1561 68.8004 64.9764C68.8004 63.7958 67.8436 62.839 66.663 62.839Z" fill="white"/>
<path d="M16.862 35.1232C17.4247 35.1232 17.9758 34.8969 18.3732 34.497C18.7706 34.0996 18.9994 33.5502 18.9994 32.9858C18.9994 32.4239 18.7706 31.8729 18.3732 31.4755C17.9758 31.0772 17.4247 30.8484 16.862 30.8484C16.3001 30.8484 15.7491 31.0772 15.3508 31.4755C14.9534 31.8729 14.7246 32.4239 14.7246 32.9858C14.7246 33.5502 14.9534 34.0996 15.3508 34.497C15.7491 34.8969 16.3001 35.1232 16.862 35.1232Z" fill="white"/>
</g>
<defs>
<clipPath id="clip0">
<rect width="109.434" height="109.434" fill="white" transform="translate(0.617908)"/>
</clipPath>
</defs>
</svg>
