<svg width="40" height="40" viewBox="0 0 40 40" fill="none" xmlns="http://www.w3.org/2000/svg">
<g clip-path="url(#clip0)">
<path d="M39.2875 3.79634C38.8471 3.52112 38.3517 3.41103 37.7462 3.46607C36.7004 3.63121 35.8197 4.01652 34.994 4.622C34.2785 5.17245 33.4528 5.83298 32.517 6.6036C32.0767 6.98891 31.6363 7.37422 31.196 7.75953C30.9208 8.03475 30.6455 8.25493 30.3703 8.53015C30.0951 8.75032 29.8749 8.86041 29.5446 8.80537C29.3795 8.75032 29.1593 8.69528 28.9392 8.64024L18.6459 4.78714C18.3156 4.67705 17.9853 4.56696 17.6 4.45687C16.8294 4.23669 16.279 4.45687 15.9487 4.73209C15.3432 5.17245 14.8478 5.72289 14.5176 6.32838C14.1322 6.93386 14.2423 7.59439 14.7928 8.08979C15.013 8.30997 15.2331 8.4751 15.3983 8.58519C17.2698 9.90626 19.1963 11.1723 21.0678 12.4933C21.7834 12.9887 22.4439 13.4291 22.9393 14.0346C23.0494 14.1997 23.1595 14.3098 23.2696 14.4749L19.6917 17.8877C19.3064 18.273 18.9211 18.6033 18.5358 18.9886C18.4807 18.9886 18.4257 18.9335 18.3707 18.9335L17.7652 18.6583C17.2698 18.4381 16.8294 18.1629 16.334 17.9427C15.7285 17.6675 15.068 17.7225 14.5726 18.1629C14.2974 18.3831 14.0222 18.6583 13.7469 18.9335C13.2515 19.4289 13.1965 20.0344 13.6368 20.5848C13.7469 20.75 13.857 20.8601 13.9671 20.9702L15.013 22.2912C16.2239 23.8875 17.4899 25.4838 18.756 27.025C18.9211 27.2452 19.0862 27.4103 19.3064 27.5204C19.5266 27.6305 19.9669 27.9057 20.5174 27.7406C21.1779 27.5204 21.6733 27.0801 21.8935 26.4195C22.1137 25.8691 22.1687 25.2636 21.9485 24.6031L21.8384 24.1077C21.7284 23.6673 21.6183 23.227 21.5082 22.7866C22.9944 21.6307 24.4806 20.5298 25.9117 19.3739L26.6273 18.8234L26.7924 19.0987C27.1777 19.7041 27.508 20.3096 27.7282 20.9702L30.2602 27.4654C30.4254 27.8507 30.5354 28.236 30.7006 28.5663C30.9758 29.1718 31.4162 29.502 31.9666 29.502C32.1868 29.502 32.4069 29.447 32.6271 29.3369C32.7923 29.2818 32.9574 29.2268 33.0675 29.1167C33.9482 28.6764 34.4986 28.0709 34.7188 27.2452C34.8839 26.5847 34.8289 25.9792 34.7739 25.5388L33.4528 15.9061C33.3427 15.1355 33.2326 14.3098 33.1225 13.5392C33.0675 13.1539 33.1776 12.9337 33.4528 12.7135L34.6087 11.7227C35.5445 10.9521 36.4252 10.1815 37.3609 9.41086C38.1316 8.75032 38.627 8.14484 39.0673 7.48431C39.3976 6.98891 39.7278 6.38342 39.893 5.72289C40.1682 5.00731 39.893 4.23669 39.2875 3.79634ZM38.8471 5.50271C38.682 6.05315 38.4068 6.54855 38.1316 6.98891C37.8013 7.53935 37.3059 8.08979 36.6454 8.64024C35.7647 9.41086 34.8289 10.1815 33.8931 10.9521L32.7923 11.8878C32.1868 12.3282 31.9116 12.9887 32.0216 13.7594C32.1317 14.53 32.2418 15.3006 32.3519 16.1263L33.673 25.759C33.728 26.3095 33.728 26.6948 33.6179 27.025C33.4528 27.5204 33.1225 27.9057 32.5721 28.181C32.462 28.236 32.3519 28.291 32.1868 28.3461C31.8565 28.4562 31.7464 28.4011 31.6363 28.1259C31.4712 27.7956 31.3611 27.4103 31.196 27.025L28.774 20.5298C28.4988 19.8142 28.1135 19.1537 27.7282 18.4932L27.3979 17.9427L26.9025 17.2271L25.1961 18.4932C23.6549 19.6491 22.1137 20.8601 20.6275 22.016C20.2422 22.2912 20.2972 22.6215 20.3523 22.8417C20.4623 23.3371 20.6275 23.8325 20.7376 24.3279L20.8476 24.8233C20.9577 25.2636 20.9577 25.6489 20.7926 25.9792C20.6275 26.3095 20.4073 26.5296 20.022 26.6397C20.022 26.6397 19.9119 26.6397 19.7468 26.5296C19.6367 26.4746 19.5266 26.3645 19.4715 26.2544C18.2055 24.6581 16.9945 23.1169 15.7836 21.5206L14.7377 20.1995C14.6276 20.0895 14.5726 19.9794 14.4625 19.8142C14.4075 19.7592 14.4075 19.7041 14.4075 19.7041C14.4075 19.7041 14.4625 19.6491 14.5176 19.5941C14.7377 19.3739 15.013 19.0987 15.2331 18.9335C15.3983 18.7684 15.6184 18.7684 15.8386 18.8785C16.334 19.0987 16.7744 19.3188 17.2698 19.5941L17.8753 19.8693C17.9853 19.9243 18.0954 19.9794 18.2055 20.0344C18.4807 20.1995 18.811 20.1445 19.0862 19.9243C19.5266 19.484 19.9669 19.0987 20.4073 18.6583L24.2054 15.0804L24.6457 14.6401L24.3705 14.2548C24.3154 14.1447 24.2604 14.0896 24.2054 13.9795C24.0402 13.7594 23.9301 13.5392 23.765 13.374C23.1595 12.6585 22.4439 12.108 21.6733 11.6126C19.8018 10.3466 17.8753 9.02555 16.0038 7.70448C15.8386 7.59439 15.6735 7.48431 15.5084 7.31917C15.3432 7.15404 15.3432 7.099 15.4533 6.98891C15.7285 6.49351 16.1689 6.05315 16.6643 5.66784C16.7744 5.55776 16.9395 5.50271 17.3248 5.6128C17.7101 5.72289 18.0404 5.83298 18.3156 5.94307L28.6089 9.79617C28.8841 9.90626 29.1593 9.9613 29.3795 10.0163C29.985 10.1264 30.5905 9.9613 31.0859 9.52094C31.3611 9.24572 31.6363 9.02555 31.9116 8.75032C32.3519 8.36501 32.7923 7.9797 33.2326 7.59439C34.1684 6.82377 34.939 6.16324 35.6546 5.6128C36.3151 5.1174 37.0857 4.78714 37.9114 4.67705C38.1866 4.622 38.4068 4.67705 38.627 4.78714C38.8471 4.84218 38.9572 5.17245 38.8471 5.50271Z" fill="#003CB0"/>
<path d="M14.6276 24.6031C14.4625 24.3829 14.0771 24.3279 13.857 24.493L0.205982 34.8964C-0.0141951 35.0615 -0.0692394 35.4468 0.0958935 35.667C0.205982 35.8321 0.371115 35.8872 0.536248 35.8872C0.646336 35.8872 0.756425 35.8321 0.866514 35.7771L14.5175 25.3737C14.7927 25.2086 14.7927 24.8783 14.6276 24.6031Z" fill="#003CB0"/>
<path d="M16.4442 27.1902C16.224 26.97 15.8937 26.9149 15.6185 27.0801L7.30681 33.4652C7.08663 33.6303 7.03159 34.0157 7.19672 34.2358C7.30681 34.401 7.47195 34.456 7.63708 34.456C7.74717 34.456 7.85726 34.401 7.96734 34.3459L16.3341 27.9608C16.5543 27.7956 16.6093 27.4103 16.4442 27.1902Z" fill="#003CB0"/>
<path d="M6.64629 34.6211C6.48116 34.401 6.09585 34.3459 5.87567 34.5111L4.49956 35.5569C4.27938 35.722 4.22434 36.1073 4.38947 36.3275C4.49956 36.4926 4.66469 36.5477 4.82983 36.5477C4.93992 36.5477 5.05 36.4926 5.16009 36.4376L6.5362 35.3918C6.75638 35.2266 6.81142 34.8413 6.64629 34.6211Z" fill="#003CB0"/>
<path d="M4.82988 28.4562C4.66475 28.236 4.27944 28.181 4.05926 28.3461L2.68316 29.3919C2.46298 29.5571 2.40793 29.9424 2.57307 30.1626C2.68316 30.3277 2.84829 30.3827 3.01342 30.3827C3.12351 30.3827 3.2336 30.3277 3.34369 30.2726L4.71979 29.2268C4.93997 29.0617 4.99502 28.6764 4.82988 28.4562Z" fill="#003CB0"/>
<path d="M12.8112 22.4564C12.646 22.2362 12.2607 22.1811 12.0406 22.3463L5.49028 27.3003C5.27011 27.4654 5.21506 27.8507 5.3802 28.0709C5.49028 28.181 5.65542 28.291 5.82055 28.291C5.93064 28.291 6.04073 28.236 6.15082 28.181L12.7011 23.227C12.9213 23.0618 12.9763 22.6765 12.8112 22.4564Z" fill="#003CB0"/>
</g>
<defs>
<clipPath id="clip0">
<rect width="40" height="40" fill="white"/>
</clipPath>
</defs>
</svg>
