<svg width="40" height="40" viewBox="0 0 40 40" fill="none" xmlns="http://www.w3.org/2000/svg">
<path d="M31.5384 0H8.46151C6.34613 0 4.61536 1.73077 4.61536 3.84615V31.5385C4.61536 32.7308 5.2692 33.7308 6.19228 34.4231C6.19228 34.4615 6.15382 34.5385 6.15382 34.6154V37.3077C6.15382 38.8077 7.34613 40 8.84613 40H9.61536C11.1154 40 12.3077 38.8077 12.3077 37.3077V35.3846H27.6923V37.3077C27.6923 38.8077 28.8846 40 30.3846 40H31.1538C32.6538 40 33.8461 38.8077 33.8461 37.3077V34.6154C34.7692 33.9231 35.3846 32.8077 35.3846 31.5385V3.84615C35.3846 1.73077 33.6538 0 31.5384 0ZM10.7692 37.3077C10.7692 37.9615 10.2692 38.4615 9.61536 38.4615H8.84613C8.19228 38.4615 7.69228 37.9615 7.69228 37.3077V35.1923C8.07689 35.3077 8.46151 35.3846 8.84613 35.3846H10.7692V37.3077ZM32.3077 37.3077C32.3077 37.9615 31.8077 38.4615 31.1538 38.4615H30.3846C29.7307 38.4615 29.2307 37.9615 29.2307 37.3077V35.3846H31.5384C31.8077 35.3846 32.0769 35.3462 32.3077 35.3077V37.3077ZM33.8461 31.5385C33.8461 32.8077 32.8077 33.8462 31.5384 33.8462H8.84613C7.61536 33.8462 6.15382 32.8077 6.15382 31.5385V24.6154H33.8461V31.5385ZM33.8461 23.0769H6.15382V7.69231H33.8461V23.0769ZM33.8461 6.15385H6.15382V3.84615C6.15382 2.57692 7.19228 1.53846 8.46151 1.53846H31.5384C32.8077 1.53846 33.8461 2.57692 33.8461 3.84615V6.15385Z" fill="#003CB0"/>
<path d="M18.4615 3.07692H13.4615C13.0384 3.07692 12.6923 3.42308 12.6923 3.84615C12.6923 4.26923 13.0384 4.61538 13.4615 4.61538H18.4615C18.8846 4.61538 19.2307 4.26923 19.2307 3.84615C19.2307 3.42308 18.8846 3.07692 18.4615 3.07692Z" fill="#003CB0"/>
<path d="M23.0769 3.07692H21.923C21.5 3.07692 21.1538 3.42308 21.1538 3.84615C21.1538 4.26923 21.5 4.61538 21.923 4.61538H23.0769C23.5 4.61538 23.8461 4.26923 23.8461 3.84615C23.8461 3.42308 23.5 3.07692 23.0769 3.07692Z" fill="#003CB0"/>
<path d="M10.3846 31.1538C11.6538 31.1538 12.6923 30.1154 12.6923 28.8462C12.6923 27.5769 11.6538 26.5385 10.3846 26.5385C9.11537 26.5385 8.0769 27.5769 8.0769 28.8462C8.0769 30.1154 9.11537 31.1538 10.3846 31.1538ZM10.3846 28.0769C10.8077 28.0769 11.1538 28.4231 11.1538 28.8462C11.1538 29.2692 10.8077 29.6154 10.3846 29.6154C9.96152 29.6154 9.61537 29.2692 9.61537 28.8462C9.61537 28.4231 9.96152 28.0769 10.3846 28.0769Z" fill="#003CB0"/>
<path d="M29.6153 31.1538C30.8845 31.1538 31.923 30.1154 31.923 28.8462C31.923 27.5769 30.8845 26.5385 29.6153 26.5385C28.3461 26.5385 27.3076 27.5769 27.3076 28.8462C27.3076 30.1154 28.3461 31.1538 29.6153 31.1538ZM29.6153 28.0769C30.0384 28.0769 30.3845 28.4231 30.3845 28.8462C30.3845 29.2692 30.0384 29.6154 29.6153 29.6154C29.1922 29.6154 28.8461 29.2692 28.8461 28.8462C28.8461 28.4231 29.1922 28.0769 29.6153 28.0769Z" fill="#003CB0"/>
</svg>
