<svg width="64" height="64" viewBox="0 0 64 64" fill="none" xmlns="http://www.w3.org/2000/svg">
<path d="M50.4616 0H13.5385C10.1539 0 7.38464 2.76923 7.38464 6.15385V50.4615C7.38464 52.3692 8.4308 53.9692 9.90772 55.0769C9.90772 55.1385 9.84618 55.2615 9.84618 55.3846V59.6923C9.84618 62.0923 11.7539 64 14.1539 64H15.3846C17.7846 64 19.6923 62.0923 19.6923 59.6923V56.6154H44.3077V59.6923C44.3077 62.0923 46.2154 64 48.6154 64H49.8462C52.2462 64 54.1539 62.0923 54.1539 59.6923V55.3846C55.6308 54.2769 56.6154 52.4923 56.6154 50.4615V6.15385C56.6154 2.76923 53.8462 0 50.4616 0ZM17.2308 59.6923C17.2308 60.7385 16.4308 61.5385 15.3846 61.5385H14.1539C13.1077 61.5385 12.3077 60.7385 12.3077 59.6923V56.3077C12.9231 56.4923 13.5385 56.6154 14.1539 56.6154H17.2308V59.6923ZM51.6923 59.6923C51.6923 60.7385 50.8923 61.5385 49.8462 61.5385H48.6154C47.5693 61.5385 46.7693 60.7385 46.7693 59.6923V56.6154H50.4616C50.8923 56.6154 51.3231 56.5538 51.6923 56.4923V59.6923ZM54.1539 50.4615C54.1539 52.4923 52.4923 54.1538 50.4616 54.1538H14.1539C12.1846 54.1538 9.84618 52.4923 9.84618 50.4615V39.3846H54.1539V50.4615ZM54.1539 36.9231H9.84618V12.3077H54.1539V36.9231ZM54.1539 9.84615H9.84618V6.15385C9.84618 4.12308 11.5077 2.46154 13.5385 2.46154H50.4616C52.4923 2.46154 54.1539 4.12308 54.1539 6.15385V9.84615Z" fill="#003CB0"/>
<path d="M29.5385 4.92307H21.5385C20.8616 4.92307 20.3077 5.47691 20.3077 6.15383C20.3077 6.83076 20.8616 7.3846 21.5385 7.3846H29.5385C30.2154 7.3846 30.7693 6.83076 30.7693 6.15383C30.7693 5.47691 30.2154 4.92307 29.5385 4.92307Z" fill="#003CB0"/>
<path d="M36.9231 4.92307H35.077C34.4 4.92307 33.8462 5.47691 33.8462 6.15383C33.8462 6.83076 34.4 7.3846 35.077 7.3846H36.9231C37.6 7.3846 38.1539 6.83076 38.1539 6.15383C38.1539 5.47691 37.6 4.92307 36.9231 4.92307Z" fill="#003CB0"/>
<path d="M16.6154 49.8462C18.6462 49.8462 20.3077 48.1846 20.3077 46.1539C20.3077 44.1231 18.6462 42.4615 16.6154 42.4615C14.5846 42.4615 12.9231 44.1231 12.9231 46.1539C12.9231 48.1846 14.5846 49.8462 16.6154 49.8462ZM16.6154 44.9231C17.2923 44.9231 17.8462 45.4769 17.8462 46.1539C17.8462 46.8308 17.2923 47.3846 16.6154 47.3846C15.9385 47.3846 15.3846 46.8308 15.3846 46.1539C15.3846 45.4769 15.9385 44.9231 16.6154 44.9231Z" fill="#003CB0"/>
<path d="M47.3846 49.8462C49.4154 49.8462 51.0769 48.1846 51.0769 46.1539C51.0769 44.1231 49.4154 42.4615 47.3846 42.4615C45.3539 42.4615 43.6923 44.1231 43.6923 46.1539C43.6923 48.1846 45.3539 49.8462 47.3846 49.8462ZM47.3846 44.9231C48.0616 44.9231 48.6154 45.4769 48.6154 46.1539C48.6154 46.8308 48.0616 47.3846 47.3846 47.3846C46.7077 47.3846 46.1539 46.8308 46.1539 46.1539C46.1539 45.4769 46.7077 44.9231 47.3846 44.9231Z" fill="#003CB0"/>
</svg>
