<svg width="44" height="15" viewBox="0 0 44 15" fill="none" xmlns="http://www.w3.org/2000/svg">
<path d="M7.744 6.544C7.60533 6.32 7.408 6.14933 7.152 6.032C6.896 5.904 6.58667 5.84 6.224 5.84C5.54133 5.84 5.01333 6.064 4.64 6.512C4.26667 6.94933 4.08 7.552 4.08 8.32C4.08 9.20533 4.288 9.86667 4.704 10.304C5.12 10.7413 5.76 10.96 6.624 10.96C7.44533 10.96 8.10667 10.6293 8.608 9.968H5.776V7.456H11.552V11.008C11.0613 11.8507 10.384 12.576 9.52 13.184C8.656 13.7813 7.56267 14.08 6.24 14.08C5.06667 14.08 4.04267 13.84 3.168 13.36C2.304 12.8693 1.63733 12.1867 1.168 11.312C0.709333 10.4373 0.48 9.44 0.48 8.32C0.48 7.2 0.709333 6.20267 1.168 5.328C1.63733 4.45333 2.304 3.776 3.168 3.296C4.032 2.80533 5.04533 2.56 6.208 2.56C7.69067 2.56 8.896 2.91733 9.824 3.632C10.7627 4.34667 11.3173 5.31733 11.488 6.544H7.744ZM24.9315 6.544C24.7928 6.32 24.5955 6.14933 24.3395 6.032C24.0835 5.904 23.7742 5.84 23.4115 5.84C22.7288 5.84 22.2008 6.064 21.8275 6.512C21.4542 6.94933 21.2675 7.552 21.2675 8.32C21.2675 9.20533 21.4755 9.86667 21.8915 10.304C22.3075 10.7413 22.9475 10.96 23.8115 10.96C24.6328 10.96 25.2942 10.6293 25.7955 9.968H22.9635V7.456H28.7395V11.008C28.2488 11.8507 27.5715 12.576 26.7075 13.184C25.8435 13.7813 24.7502 14.08 23.4275 14.08C22.2542 14.08 21.2302 13.84 20.3555 13.36C19.4915 12.8693 18.8248 12.1867 18.3555 11.312C17.8968 10.4373 17.6675 9.44 17.6675 8.32C17.6675 7.2 17.8968 6.20267 18.3555 5.328C18.8248 4.45333 19.4915 3.776 20.3555 3.296C21.2195 2.80533 22.2328 2.56 23.3955 2.56C24.8782 2.56 26.0835 2.91733 27.0115 3.632C27.9502 4.34667 28.5048 5.31733 28.6755 6.544H24.9315ZM43.6348 2.672V14H40.0988V8.352L38.3548 14H35.3148L33.5708 8.352V14H30.0188V2.672H34.3708L36.8668 9.472L39.2988 2.672H43.6348Z" fill="black"/>
<path d="M14.6233 4.256C14.0046 4.256 13.5086 4.09067 13.1353 3.76C12.7619 3.42933 12.5753 3.01333 12.5753 2.512C12.5753 2 12.7619 1.57867 13.1353 1.248C13.5086 0.906666 14.0046 0.735999 14.6233 0.735999C15.2313 0.735999 15.7219 0.906666 16.0953 1.248C16.4686 1.57867 16.6553 2 16.6553 2.512C16.6553 3.01333 16.4686 3.42933 16.0953 3.76C15.7219 4.09067 15.2313 4.256 14.6233 4.256ZM16.3833 4.976V14H12.8313V4.976H16.3833Z" fill="#FF002E"/>
</svg>
