<svg width="16" height="11" viewBox="0 0 16 11" fill="none" xmlns="http://www.w3.org/2000/svg">
<path d="M6.49857 6.81566C8.36313 6.81566 9.87709 5.30168 9.87709 3.45306C9.87709 1.58851 8.36313 0.0905078 6.49857 0.0905078C4.63401 0.0905078 3.12006 1.60444 3.12006 3.45306C3.13599 5.30168 4.64995 6.81566 6.49857 6.81566ZM6.49857 1.34947C7.66193 1.34947 8.60218 2.28973 8.60218 3.43715C8.60218 4.58457 7.66193 5.52479 6.49857 5.52479C5.33521 5.52479 4.39497 4.58457 4.39497 3.43715C4.4109 2.28973 5.35115 1.34947 6.49857 1.34947ZM8.02846 7.11843C7.85316 7.07062 7.66193 7.08658 7.50257 7.1822L6.49857 7.78775L5.49458 7.1822C5.33521 7.08658 5.14397 7.07062 4.96867 7.11843C3.99655 7.42123 0.857086 8.55272 0.857086 10.2738C0.857086 10.6244 1.14394 10.9113 1.49454 10.9113H11.5026C11.8532 10.9113 12.1401 10.6244 12.1401 10.2738C12.1401 8.56865 9.00058 7.43716 8.02846 7.11843ZM2.6579 9.63639C3.19973 9.22205 4.10811 8.77581 5.09617 8.42521L6.17984 9.07862C6.38701 9.20611 6.642 9.20611 6.83323 9.07862L7.91691 8.42521C8.90496 8.75987 9.81334 9.22205 10.3552 9.63639H2.6579ZM15.3592 9.1583C15.3592 9.42922 15.152 9.63639 14.8811 9.63639H12.7456C12.4747 9.63639 12.2675 9.42922 12.2675 9.1583C12.2675 8.88738 12.4747 8.68021 12.7456 8.68021H14.164C13.9249 8.36148 13.5425 8.10651 13.0644 7.85152C12.8253 7.72403 12.7456 7.43718 12.8731 7.21407C13.0006 6.97502 13.2875 6.89535 13.5265 7.02284C14.2118 7.38938 15.3592 8.17024 15.3592 9.1583ZM12.6819 4.95111C12.6819 4.24991 12.1082 3.69211 11.4229 3.69211C11.2476 3.69211 11.0883 3.724 10.9289 3.78774C10.6898 3.88336 10.403 3.77179 10.3074 3.53275C10.2117 3.2937 10.3233 3.00686 10.5624 2.91124C10.8333 2.79969 11.1201 2.73593 11.4229 2.73593C12.65 2.73593 13.6381 3.72401 13.6381 4.95111C13.6381 6.17821 12.6341 7.16625 11.4229 7.16625C10.7855 7.16625 10.1799 6.89534 9.76553 6.41725C9.59023 6.22601 9.60617 5.92323 9.81334 5.74793C10.0046 5.57263 10.3074 5.58853 10.4827 5.79571C10.7217 6.06662 11.0723 6.22602 11.4389 6.22602C12.1082 6.21008 12.6819 5.63637 12.6819 4.95111Z" fill="#585858"/>
</svg>
