<svg width="32" height="32" viewBox="0 0 32 32" fill="none" xmlns="http://www.w3.org/2000/svg">
<path d="M30.9416 9.46663L22.5083 1.03328C21.9749 0.499952 21.1416 0.499952 20.6083 1.03328C20.5083 1.13328 18.0749 3.63328 19.0083 6.89994L15.2083 10.7C13.1083 10.0666 7.74162 8.96664 3.77495 12.9333C3.24162 13.4666 3.24162 14.3 3.77495 14.8333L9.50827 20.5666L1.04159 29.0333C0.50826 29.5667 0.50826 30.4 1.04159 30.9333C1.30826 31.2 1.64161 31.3333 1.97494 31.3333C2.30828 31.3333 2.64159 31.2 2.90825 30.9333L11.3749 22.4666L17.1083 28.2C17.375 28.4667 17.7083 28.6 18.0416 28.6C18.3749 28.6 18.7083 28.4667 18.9749 28.2C22.9416 24.2333 21.8416 18.8333 21.2083 16.7666L25.0083 12.9666C28.2749 13.9 30.7416 11.4666 30.8749 11.3666C31.4749 10.8333 31.475 9.99997 30.9416 9.46663ZM25.3416 10.2C24.8416 9.96662 24.2416 10.0666 23.8416 10.4666L18.8416 15.4666C18.4749 15.8333 18.3416 16.4333 18.5416 16.8999C18.5416 16.8999 19.1416 18.4 19.2416 20.3333C19.3416 22.2666 18.9416 23.9 18.0416 25.2666L12.3749 19.6L6.70826 13.9333C10.2749 11.5333 14.8749 13.3333 15.0749 13.4333C15.5749 13.6333 16.1416 13.5333 16.5416 13.1333L21.5416 8.1333C21.9416 7.7333 22.0416 7.1333 21.8083 6.6333C21.3416 5.6333 21.5083 4.73328 21.8083 4.03328L27.9416 10.1666C27.2416 10.5 26.3083 10.6666 25.3416 10.2ZM17.4083 17.4333C17.4416 17.5333 17.8749 18.5 17.8416 19.5333C17.8083 20.1667 17.3083 20.6666 16.6749 20.6666H16.6416C16.0083 20.6333 15.4749 20.0999 15.5083 19.4666C15.5083 19.0333 15.3416 18.5333 15.275 18.3667C15.0083 17.7667 15.2749 17.1 15.8749 16.8333C16.4749 16.6 17.1749 16.8333 17.4083 17.4333Z" fill="white"/>
</svg>
