<svg width="64" height="64" viewBox="0 0 64 64" fill="none" xmlns="http://www.w3.org/2000/svg">
<g clip-path="url(#clip0)">
<path d="M62.8601 6.07415C62.1555 5.6338 61.3629 5.45766 60.3941 5.54573C58.7207 5.80994 57.3116 6.42644 55.9906 7.39522C54.8456 8.27593 53.5246 9.33278 52.0274 10.5658C51.3228 11.1823 50.6182 11.7988 49.9137 12.4153C49.4733 12.8556 49.033 13.2079 48.5926 13.6482C48.1522 14.0005 47.8 14.1767 47.2715 14.0886C47.0073 14.0005 46.655 13.9125 46.3028 13.8244L29.8335 7.65943C29.3051 7.48329 28.7767 7.30715 28.1602 7.13101C26.9272 6.77872 26.0465 7.13101 25.518 7.57136C24.5492 8.27593 23.7566 9.15664 23.2282 10.1254C22.6117 11.0942 22.7878 12.151 23.6685 12.9437C24.0208 13.296 24.3731 13.5602 24.6373 13.7363C27.6317 15.85 30.7142 17.8757 33.7086 19.9894C34.8535 20.782 35.9104 21.4866 36.703 22.4553C36.8792 22.7196 37.0553 22.8957 37.2315 23.1599L31.5068 28.6203C30.8904 29.2368 30.2739 29.7652 29.6574 30.3817C29.5693 30.3817 29.4812 30.2936 29.3931 30.2936L28.4244 29.8533C27.6317 29.501 26.9272 29.0607 26.1345 28.7084C25.1657 28.268 24.1089 28.3561 23.3163 29.0607C22.8759 29.4129 22.4355 29.8533 21.9952 30.2936C21.2026 31.0863 21.1145 32.0551 21.8191 32.9358C21.9952 33.2 22.1713 33.3761 22.3475 33.5523L24.0208 35.666C25.9584 38.22 27.984 40.7741 30.0096 43.2401C30.2739 43.5923 30.5381 43.8566 30.8904 44.0327C31.2426 44.2088 31.9472 44.6492 32.8279 44.385C33.8848 44.0327 34.6774 43.3281 35.0297 42.2713C35.382 41.3906 35.47 40.4218 35.1178 39.3649L34.9416 38.5723C34.7655 37.8677 34.5893 37.1632 34.4132 36.4586C36.7911 34.6091 39.169 32.8477 41.4589 30.9982L42.6038 30.1175L42.868 30.5579C43.4845 31.5266 44.0129 32.4954 44.3652 33.5523L48.4165 43.9446C48.6807 44.5611 48.8568 45.1776 49.121 45.706C49.5614 46.6748 50.2659 47.2032 51.1467 47.2032C51.4989 47.2032 51.8512 47.1152 52.2035 46.939C52.4677 46.851 52.7319 46.7629 52.9081 46.5868C54.3172 45.8822 55.1979 44.9134 55.5502 43.5923C55.8144 42.5355 55.7263 41.5667 55.6383 40.8621L53.5246 25.4497C53.3484 24.2168 53.1723 22.8957 52.9961 21.6627C52.9081 21.0462 53.0842 20.6939 53.5246 20.3416L55.3741 18.7564C56.8713 17.5234 58.2804 16.2904 59.7776 15.0574C61.0106 14.0005 61.8032 13.0318 62.5078 11.9749C63.0362 11.1823 63.5646 10.2135 63.8289 9.15664C64.2692 8.01171 63.8289 6.77872 62.8601 6.07415ZM62.1555 8.80435C61.8913 9.68506 61.4509 10.4777 61.0106 11.1823C60.4822 12.063 59.6895 12.9437 58.6327 13.8244C57.2235 15.0574 55.7263 16.2904 54.2291 17.5234L52.4677 19.0206C51.4989 19.7251 51.0586 20.782 51.2347 22.015C51.4109 23.248 51.587 24.481 51.7631 25.802L53.8769 41.2144C53.9649 42.0951 53.9649 42.7116 53.7888 43.2401C53.5246 44.0327 52.9961 44.6492 52.1154 45.0896C51.9393 45.1776 51.7632 45.2657 51.4989 45.3538C50.9705 45.5299 50.7944 45.4418 50.6182 45.0015C50.354 44.4731 50.1779 43.8566 49.9137 43.2401L46.0385 32.8477C45.5982 31.7028 44.9817 30.6459 44.3652 29.5891L43.8368 28.7084L43.0441 27.5634L40.3139 29.5891C37.848 31.4386 35.382 33.3761 33.0041 35.2256C32.3876 35.666 32.4756 36.1944 32.5637 36.5467C32.7398 37.3393 33.0041 38.132 33.1802 38.9246L33.3563 39.7172C33.5325 40.4218 33.5325 41.0383 33.2683 41.5667C33.0041 42.0951 32.6518 42.4474 32.0353 42.6236C32.0353 42.6236 31.8591 42.6236 31.5949 42.4474C31.4188 42.3594 31.2426 42.1832 31.1546 42.0071C29.1289 39.453 27.1914 36.987 25.2538 34.433L23.5805 32.3193C23.4043 32.1431 23.3163 31.967 23.1401 31.7028C23.052 31.6147 23.052 31.5266 23.052 31.5266C23.052 31.5266 23.1401 31.4386 23.2282 31.3505C23.5805 30.9982 24.0208 30.5579 24.3731 30.2936C24.6373 30.0294 24.9896 30.0294 25.3419 30.2056C26.1345 30.5579 26.8391 30.9101 27.6317 31.3505L28.6005 31.7908C28.7767 31.8789 28.9528 31.967 29.1289 32.0551C29.5693 32.3193 30.0977 32.2312 30.5381 31.8789C31.2426 31.1744 31.9472 30.5579 32.6518 29.8533L38.7287 24.1287L39.4332 23.4241L38.9929 22.8076C38.9048 22.6315 38.8167 22.5434 38.7287 22.3673C38.4644 22.015 38.2883 21.6627 38.0241 21.3985C37.0553 20.2536 35.9104 19.3729 34.6774 18.5802C31.683 16.5546 28.6005 14.4409 25.6061 12.3272C25.3419 12.151 25.0777 11.9749 24.8135 11.7107C24.5493 11.4465 24.5492 11.3584 24.7254 11.1823C25.1657 10.3896 25.8703 9.68506 26.663 9.06856C26.8391 8.89242 27.1033 8.80435 27.7198 8.98049C28.3363 9.15664 28.8647 9.33278 29.3051 9.50892L45.7743 15.6739C46.2147 15.85 46.655 15.9381 47.0073 16.0262C47.9761 16.2023 48.9449 15.9381 49.7375 15.2335C50.1779 14.7932 50.6182 14.4409 51.0586 14.0005C51.7632 13.384 52.4677 12.7675 53.1723 12.151C54.6695 10.9181 55.9025 9.8612 57.0474 8.98049C58.1043 8.18786 59.3372 7.65943 60.6583 7.48329C61.0987 7.39522 61.4509 7.48329 61.8032 7.65943C62.1555 7.7475 62.3317 8.27593 62.1555 8.80435Z" fill="#003CB0"/>
<path d="M23.4042 39.365C23.14 39.0127 22.5235 38.9246 22.1713 39.1888L0.329675 55.8342C-0.0226084 56.0984 -0.110679 56.7149 0.153533 57.0672C0.329675 57.3314 0.593888 57.4195 0.8581 57.4195C1.03424 57.4195 1.21038 57.3314 1.38653 57.2433L23.2281 40.5979C23.6685 40.3337 23.6685 39.8053 23.4042 39.365Z" fill="#003CB0"/>
<path d="M26.3106 43.5043C25.9584 43.152 25.4299 43.0639 24.9896 43.3281L11.6909 53.5443C11.3386 53.8086 11.2505 54.4251 11.5147 54.7773C11.6909 55.0415 11.9551 55.1296 12.2193 55.1296C12.3954 55.1296 12.5716 55.0415 12.7477 54.9535L26.1345 44.7373C26.4868 44.473 26.5749 43.8565 26.3106 43.5043Z" fill="#003CB0"/>
<path d="M10.634 55.3938C10.3698 55.0415 9.75333 54.9535 9.40105 55.2177L7.19927 56.891C6.84699 57.1552 6.75892 57.7717 7.02313 58.124C7.19927 58.3882 7.46349 58.4763 7.7277 58.4763C7.90384 58.4763 8.07998 58.3882 8.25612 58.3002L10.4579 56.6268C10.8102 56.3626 10.8983 55.7461 10.634 55.3938Z" fill="#003CB0"/>
<path d="M7.7277 45.5299C7.46349 45.1776 6.84699 45.0895 6.4947 45.3538L4.29293 47.0271C3.94065 47.2913 3.85258 47.9078 4.11679 48.2601C4.29293 48.5243 4.55714 48.6124 4.82136 48.6124C4.9975 48.6124 5.17364 48.5243 5.34978 48.4362L7.55156 46.7629C7.90384 46.4987 7.99191 45.8822 7.7277 45.5299Z" fill="#003CB0"/>
<path d="M20.498 35.9302C20.2338 35.5779 19.6173 35.4898 19.265 35.754L8.78454 43.6804C8.43226 43.9446 8.34419 44.5611 8.6084 44.9134C8.78454 45.0895 9.04875 45.2657 9.31296 45.2657C9.48911 45.2657 9.66525 45.1776 9.84139 45.0895L20.3218 37.1632C20.6741 36.8989 20.7622 36.2825 20.498 35.9302Z" fill="#003CB0"/>
</g>
<defs>
<clipPath id="clip0">
<rect width="64" height="64" fill="white"/>
</clipPath>
</defs>
</svg>
