<svg width="40" height="40" viewBox="0 0 40 40" fill="none" xmlns="http://www.w3.org/2000/svg">
<g clip-path="url(#clip0)">
<path d="M39.9123 38.8583L33.3775 26.2793L34.564 25.2866C34.7417 25.1379 34.8442 24.9185 34.8442 24.6872V5.82031C34.8442 2.61108 32.2331 0 29.0239 0H10.977C7.76779 0 5.1567 2.61108 5.1567 5.82031V8.51562C5.1567 8.94684 5.50674 9.29688 5.93795 9.29688C6.36947 9.29688 6.7192 8.94684 6.7192 8.51562V5.82031C6.7192 3.4726 8.6293 1.5625 10.977 1.5625H29.0239C31.3716 1.5625 33.2817 3.4726 33.2817 5.82031V24.3222L27.1501 29.4528H24.9223V28.32C24.9223 27.8888 24.5726 27.5388 24.1411 27.5388C23.7096 27.5388 23.3598 27.8888 23.3598 28.32V29.4528H20.9868V28.32C20.9868 27.8888 20.637 27.5388 20.2058 27.5388C19.7743 27.5388 19.4246 27.8888 19.4246 28.32V29.4528H17.0515V28.32C17.0515 27.8888 16.7018 27.5388 16.2703 27.5388C15.8391 27.5388 15.489 27.8888 15.489 28.32V29.4528H12.8508L6.7192 24.3222V15.8594C6.7192 15.4279 6.36947 15.0781 5.93795 15.0781C5.50674 15.0781 5.1567 15.4279 5.1567 15.8594V24.6875C5.1567 24.9188 5.25924 25.1382 5.43685 25.2866L6.62338 26.2793L0.0886484 38.8583C-0.110326 39.241 0.0389048 39.7128 0.421595 39.9118C0.536952 39.9716 0.659937 39.9997 0.781092 39.9997C1.06338 39.9997 1.33621 39.8465 1.47506 39.5786L7.85049 27.3062L8.9302 28.2095L4.81796 38.9389C4.66354 39.3417 4.86495 39.7934 5.26779 39.9481C5.35995 39.9832 5.45425 40 5.54733 40C5.86135 40 6.15768 39.809 6.277 39.498L7.10281 37.3434H26.9536C27.3848 37.3434 27.7348 36.9937 27.7348 36.5622C27.7348 36.1307 27.3848 35.7809 26.9536 35.7809H7.70156L8.30337 34.2111C8.33663 34.2154 8.3699 34.2184 8.40438 34.2184H31.5694C31.6127 34.2184 31.6548 34.2142 31.696 34.2075L33.7239 39.498C33.8432 39.809 34.1392 40 34.4536 40C34.5467 40 34.641 39.9832 34.7331 39.9481C35.1359 39.7934 35.3374 39.3417 35.1829 38.9389L31.0707 28.2095L32.1504 27.3062L38.5258 39.5786C38.665 39.8465 38.9375 39.9997 39.2198 39.9997C39.341 39.9997 39.4643 39.9716 39.5793 39.9118C39.962 39.7128 40.1112 39.2413 39.9123 38.8583ZM31.1015 32.6559H8.89938L10.1973 29.2697L12.0659 30.8334C12.2063 30.9509 12.3839 31.0153 12.5673 31.0153H27.4339C27.6173 31.0153 27.7946 30.9509 27.935 30.8334L29.8036 29.2697L31.1015 32.6559Z" fill="#003CB0"/>
<path d="M30.1562 35.7809C29.9506 35.7809 29.7491 35.8646 29.6039 36.0098C29.4586 36.1554 29.375 36.3568 29.375 36.5622C29.375 36.7679 29.4583 36.9693 29.6039 37.1146C29.7491 37.2598 29.9506 37.3434 30.1562 37.3434C30.3616 37.3434 30.563 37.2598 30.7083 37.1146C30.8539 36.9693 30.9375 36.7679 30.9375 36.5622C30.9375 36.3568 30.8539 36.1554 30.7083 36.0098C30.563 35.8646 30.3616 35.7809 30.1562 35.7809Z" fill="#003CB0"/>
<path d="M31.0938 7.96875C31.0938 6.67633 30.0424 5.625 28.75 5.625H11.25C9.95789 5.625 8.90625 6.67633 8.90625 7.96875V14.8438C8.90625 16.1362 9.95789 17.1875 11.25 17.1875H28.75C30.0424 17.1875 31.0938 16.1362 31.0938 14.8438V7.96875ZM10.4688 14.8438V7.96875C10.4688 7.53784 10.8194 7.1875 11.25 7.1875H19.2188V15.625H11.25C10.8194 15.625 10.4688 15.2744 10.4688 14.8438ZM29.5312 14.8438C29.5312 15.2744 29.1806 15.625 28.75 15.625H20.7812V7.1875H28.75C29.1806 7.1875 29.5312 7.53784 29.5312 7.96875V14.8438Z" fill="#003CB0"/>
<path d="M11.5366 24.5312C13.0012 24.5312 14.1929 23.3395 14.1929 21.875C14.1929 20.4102 13.0012 19.2188 11.5366 19.2188C10.0721 19.2188 8.88037 20.4102 8.88037 21.875C8.88037 23.3395 10.0721 24.5312 11.5366 24.5312ZM11.5366 20.7812C12.1396 20.7812 12.6304 21.2717 12.6304 21.875C12.6304 22.478 12.1396 22.9688 11.5366 22.9688C10.9336 22.9688 10.4429 22.478 10.4429 21.875C10.4429 21.2717 10.9336 20.7812 11.5366 20.7812Z" fill="#003CB0"/>
<path d="M28.4375 19.2188C26.9727 19.2188 25.7812 20.4102 25.7812 21.875C25.7812 23.3395 26.9727 24.5312 28.4375 24.5312C29.902 24.5312 31.0938 23.3395 31.0938 21.875C31.0938 20.4102 29.902 19.2188 28.4375 19.2188ZM28.4375 22.9688C27.8342 22.9688 27.3438 22.478 27.3438 21.875C27.3438 21.2717 27.8342 20.7812 28.4375 20.7812C29.0405 20.7812 29.5312 21.2717 29.5312 21.875C29.5312 22.478 29.0405 22.9688 28.4375 22.9688Z" fill="#003CB0"/>
<path d="M24.1406 19.2285H16.2698C15.8386 19.2285 15.4885 19.5782 15.4885 20.0098C15.4885 20.4413 15.8386 20.791 16.2698 20.791H24.1406C24.5721 20.791 24.9218 20.4413 24.9218 20.0098C24.9218 19.5782 24.5721 19.2285 24.1406 19.2285Z" fill="#003CB0"/>
<path d="M24.1406 22.9688H16.2698C15.8386 22.9688 15.4885 23.3185 15.4885 23.75C15.4885 24.1812 15.8386 24.5312 16.2698 24.5312H24.1406C24.5721 24.5312 24.9218 24.1812 24.9218 23.75C24.9218 23.3185 24.5721 22.9688 24.1406 22.9688Z" fill="#003CB0"/>
<path d="M5.9375 12.8381C6.14319 12.8381 6.3446 12.7554 6.48987 12.6093C6.63513 12.464 6.71875 12.2632 6.71875 12.0569C6.71875 11.8515 6.63513 11.6501 6.48987 11.5048C6.3446 11.3593 6.14319 11.2756 5.9375 11.2756C5.73212 11.2756 5.5307 11.3593 5.38513 11.5048C5.23987 11.6501 5.15625 11.8515 5.15625 12.0569C5.15625 12.2632 5.23987 12.464 5.38513 12.6093C5.5307 12.7554 5.73212 12.8381 5.9375 12.8381Z" fill="#003CB0"/>
</g>
<defs>
<clipPath id="clip0">
<rect width="40" height="40" fill="white"/>
</clipPath>
</defs>
</svg>
