<svg width="32" height="28" viewBox="0 0 32 28" fill="none" xmlns="http://www.w3.org/2000/svg">
<path d="M30.9418 6.29997C30.6752 6.0333 30.3418 6 30.0085 6H23.0085V2C23.0085 1.26667 22.3418 0.666668 21.6085 0.666668H10.4085C9.67512 0.666668 9.00847 1.26667 9.00847 2V6H2.00847C1.27514 6 0.67514 6.43333 0.67514 7.16667V26C0.67514 26.7333 1.27514 27.3333 2.00847 27.3333H30.0085C30.7418 27.3333 31.3418 26.7333 31.3418 26V7.23332C31.3418 6.86665 31.2085 6.56664 30.9418 6.29997ZM11.6751 3.33333H20.3418V6H11.6751V3.33333ZM28.6751 8.66667V15.6667H19.3418V15.1667C19.3418 14.6 18.8085 14.3333 18.2418 14.3333H13.7418C13.1751 14.3333 12.6418 14.6333 12.6418 15.1667V15.6667H3.30848V8.66667H28.6751ZM17.3418 16.3333V17H14.6751V16.3333H17.3418ZM3.34181 24.6667V17.6667H12.6751V18C12.6751 18.5667 13.2085 19 13.7752 19H18.2752C18.8418 19 19.3751 18.5333 19.3751 18V17.6667H28.7085V24.6667H3.34181Z" fill="white"/>
</svg>
