<svg width="24" height="24" viewBox="0 0 24 24" fill="none" xmlns="http://www.w3.org/2000/svg">
<path d="M11.4399 19.605L3.59995 19.605C3.15995 19.605 2.79995 19.245 2.79995 18.805C2.79995 18.365 3.15995 18.005 3.59995 18.005L11.4399 18.005C11.8799 18.005 12.2399 18.365 12.2399 18.805C12.2399 19.245 11.8799 19.605 11.4399 19.605ZM18.92 18.805C18.92 19.245 19.28 19.605 19.72 19.605L20.4 19.605C20.84 19.605 21.2 19.245 21.2 18.805C21.2 18.365 20.84 18.005 20.4 18.005L19.72 18.005C19.28 18.005 18.92 18.365 18.92 18.805ZM12 7.585C10.68 7.585 9.59995 6.505 9.59995 5.205C9.59995 3.905 10.68 2.82499 12 2.82499C13.32 2.82499 14.4 3.905 14.4 5.205C14.4 6.505 13.32 7.585 12 7.585ZM12 5.985C12.4399 5.985 12.8 5.625 12.8 5.205C12.8 4.785 12.4399 4.42499 12 4.42499C11.5599 4.42499 11.2 4.785 11.2 5.205C11.2 5.625 11.5599 5.985 12 5.985ZM8.05996 14.385C6.73996 14.385 5.65996 13.305 5.65996 12.005C5.65996 10.705 6.73996 9.62499 8.05996 9.62499C9.37996 9.62499 10.46 10.705 10.46 12.005C10.46 13.305 9.39996 14.385 8.05996 14.385ZM8.05996 12.785C8.49996 12.785 8.85996 12.425 8.85996 12.005C8.85996 11.585 8.49996 11.225 8.05996 11.225C7.61996 11.225 7.25996 11.585 7.25996 12.005C7.25996 12.425 7.61996 12.785 8.05996 12.785ZM15.4799 21.205C14.1599 21.205 13.0799 20.125 13.0799 18.825C13.0799 17.525 14.1599 16.445 15.4799 16.445C16.7999 16.445 17.8799 17.525 17.8799 18.825C17.8799 20.125 16.7999 21.205 15.4799 21.205ZM15.4799 19.605C15.9199 19.605 16.2799 19.245 16.2799 18.825C16.2799 18.405 15.9199 18.045 15.4799 18.045C15.0399 18.045 14.6799 18.405 14.6799 18.825C14.6799 19.245 15.0199 19.605 15.4799 19.605ZM4.85996 12.005C4.85996 11.565 4.49996 11.205 4.05996 11.205L3.59995 11.205C3.15995 11.205 2.79995 11.565 2.79995 12.005C2.79995 12.445 3.15995 12.805 3.59995 12.805L4.05996 12.805C4.49996 12.805 4.85996 12.445 4.85996 12.005ZM11.46 12.005C11.46 12.445 11.82 12.805 12.26 12.805L20.4 12.805C20.84 12.805 21.2 12.445 21.2 12.005C21.2 11.565 20.84 11.205 20.4 11.205L12.26 11.205C11.82 11.205 11.46 11.565 11.46 12.005ZM8.53994 5.205C8.53994 4.765 8.17994 4.405 7.73994 4.405L3.59995 4.405C3.15995 4.405 2.79995 4.765 2.79995 5.205C2.79995 5.645 3.15995 6.005 3.59995 6.005L7.73994 6.005C8.17994 6.005 8.53994 5.645 8.53994 5.205ZM15.42 5.205C15.42 5.645 15.78 6.005 16.22 6.005L20.4 6.005C20.84 6.005 21.2 5.645 21.2 5.205C21.2 4.765 20.84 4.405 20.4 4.405L16.22 4.405C15.78 4.405 15.42 4.765 15.42 5.205Z" fill="#3B567F"/>
</svg>
