<svg width="12" height="15" viewBox="0 0 12 15" fill="none" xmlns="http://www.w3.org/2000/svg">
<path d="M9.77341 1.51481C8.86503 0.702052 7.59011 0.255829 6.20365 0.255829C4.81718 0.255829 3.54227 0.702052 2.63389 1.51481C1.53428 2.50286 0.944637 3.98495 0.944637 5.81763C0.944637 9.81767 5.55027 14.5189 5.75744 14.7101C5.88493 14.8376 6.04428 14.9014 6.20365 14.9014C6.36301 14.9014 6.53832 14.8376 6.64988 14.7101C6.84111 14.5189 11.4627 9.81767 11.4627 5.81763C11.4467 3.98495 10.873 2.50286 9.77341 1.51481ZM6.18772 13.3396C5.75743 12.8615 5.07218 12.0647 4.40285 11.1085C2.96857 9.06865 2.20362 7.25191 2.20362 5.83357C2.20362 1.84947 5.24747 1.53074 6.18772 1.53074C9.88496 1.53074 10.1718 4.82957 10.1718 5.83357C10.1718 8.63837 7.3192 12.0966 6.18772 13.3396ZM6.18772 3.01282C4.78531 3.01282 3.65382 4.17618 3.65382 5.59452C3.65382 7.01286 4.78531 8.17622 6.18772 8.17622C7.59012 8.17622 8.72161 7.01286 8.72161 5.59452C8.72161 4.16025 7.59012 3.01282 6.18772 3.01282ZM6.18772 7.04473C5.40683 7.04473 4.76937 6.39135 4.76937 5.57859C4.76937 4.76583 5.40683 4.11244 6.18772 4.11244C6.9686 4.11244 7.60606 4.76583 7.60606 5.57859C7.60606 6.39135 6.9686 7.04473 6.18772 7.04473Z" fill="#585858"/>
</svg>
